<svg xmlns="http://www.w3.org/2000/svg" version="1.1" xmlns:xlink="http://www.w3.org/1999/xlink" viewBox="0 0 200 200"><rect width="200" height="200" fill="url('#gradient')"></rect><defs><linearGradient id="gradient" gradientTransform="rotate(74 0.5 0.5)"><stop offset="0%" stop-color="#0f1a1e"></stop><stop offset="100%" stop-color="#34c78a"></stop></linearGradient></defs><g><g fill="#f0e2a7" transform="matrix(3.4831431646932187,0,0,3.4831431646932187,18.651695749569754,119.05154140583281)" stroke="#c2d02d" stroke-width="0"><path d="M9.17-4.81L12.58-4.81Q12.51-3.33 11.78-2.19Q11.04-1.05 9.72-0.43Q8.40 0.20 6.70 0.20L6.70 0.20Q3.90 0.20 2.29-1.63Q0.67-3.46 0.67-6.79L0.67-6.79L0.67-7.49Q0.67-9.58 1.40-11.15Q2.13-12.71 3.50-13.57Q4.86-14.42 6.66-14.42L6.66-14.42Q9.25-14.42 10.82-13.06Q12.39-11.70 12.61-9.31L12.61-9.31L9.19-9.31Q9.15-10.61 8.54-11.17Q7.92-11.74 6.66-11.74L6.66-11.74Q5.38-11.74 4.79-10.78Q4.19-9.82 4.16-7.72L4.16-7.72L4.16-6.72Q4.16-4.44 4.73-3.47Q5.30-2.49 6.70-2.49L6.70-2.49Q7.88-2.49 8.51-3.05Q9.13-3.60 9.17-4.81L9.17-4.81ZM17.27-15L17.27-9.43Q18.32-10.76 19.96-10.76L19.96-10.76Q21.71-10.76 22.60-9.73Q23.49-8.69 23.51-6.67L23.51-6.67L23.51 0L20.21 0L20.21-6.59Q20.21-7.43 19.86-7.83Q19.52-8.22 18.70-8.22L18.70-8.22Q17.69-8.22 17.27-7.58L17.27-7.58L17.27 0L13.97 0L13.97-15L17.27-15ZM30.45 0.20L30.45 0.20Q28.02 0.20 26.51-1.25Q25.01-2.71 25.01-5.03L25.01-5.03L25.01-5.30Q25.01-6.92 25.61-8.16Q26.21-9.40 27.36-10.08Q28.52-10.76 30.10-10.76L30.10-10.76Q32.32-10.76 33.61-9.38Q34.90-8.00 34.90-5.53L34.90-5.53L34.90-4.25L28.36-4.25Q28.54-3.36 29.13-2.85Q29.73-2.34 30.67-2.34L30.67-2.34Q32.24-2.34 33.12-3.44L33.12-3.44L34.62-1.66Q34.00-0.81 32.88-0.31Q31.75 0.20 30.45 0.20ZM30.08-8.22L30.08-8.22Q28.63-8.22 28.36-6.31L28.36-6.31L31.68-6.31L31.68-6.56Q31.70-7.35 31.28-7.79Q30.86-8.22 30.08-8.22ZM46.04-5.36L46.04-5.21Q46.04-2.74 44.93-1.27Q43.82 0.20 41.93 0.20L41.93 0.20Q40.48 0.20 39.54-0.87L39.54-0.87L39.54 4.06L36.25 4.06L36.25-10.57L39.33-10.57L39.42-9.59Q40.37-10.76 41.91-10.76L41.91-10.76Q43.87-10.76 44.95-9.32Q46.04-7.88 46.04-5.36L46.04-5.36ZM42.74-5.06L42.74-5.41Q42.74-8.22 41.10-8.22L41.10-8.22Q39.93-8.22 39.54-7.38L39.54-7.38L39.54-3.22Q39.97-2.34 41.12-2.34L41.12-2.34Q42.70-2.34 42.74-5.06L42.74-5.06Z"></path></g></g></svg>